<?xml version="1.0" standalone="no"?>
<!DOCTYPE svg PUBLIC "-//W3C//DTD SVG 20010904//EN"
 "http://www.w3.org/TR/2001/REC-SVG-20010904/DTD/svg10.dtd">
<svg version="1.0" xmlns="http://www.w3.org/2000/svg"
 width="287.000000pt" height="106.000000pt" viewBox="0 0 287.000000 106.000000"
 preserveAspectRatio="xMidYMid meet">

<g transform="translate(0.000000,106.000000) scale(0.100000,-0.100000)"
fill="#000000" stroke="none">
<path d="M960 763 l0 -158 -22 32 c-68 95 -216 107 -299 24 l-36 -36 -10 26
c-24 63 -120 84 -181 41 l-32 -23 -26 20 c-41 32 -87 37 -134 12 -33 -17 -40
-18 -40 -6 0 11 -12 15 -50 15 l-50 0 0 -155 0 -155 50 0 50 0 0 96 c0 111 9
134 50 134 47 0 60 -30 60 -137 l0 -93 50 0 50 0 0 96 c0 111 9 134 50 134 47
0 60 -30 60 -137 l0 -93 50 0 50 0 0 42 0 41 36 -35 c84 -85 241 -72 303 25
l21 32 0 -52 0 -53 50 0 c38 0 50 4 50 15 0 12 6 12 37 -5 69 -37 147 -16 190
49 l23 34 0 -47 0 -46 55 0 55 0 0 155 0 155 -55 0 -55 0 0 -47 0 -48 -20 32
c-40 66 -125 90 -192 55 l-38 -20 0 119 0 119 -50 0 -50 0 0 -157z m-135 -158
c14 -13 25 -36 25 -50 0 -33 -41 -75 -73 -75 -30 0 -65 28 -68 55 -11 78 64
123 116 70z m349 4 c18 -14 26 -30 26 -53 0 -42 -18 -64 -57 -72 -26 -5 -37
-1 -57 19 -33 33 -33 71 -1 102 30 30 54 31 89 4z"/>
<path d="M1440 660 l0 -260 50 0 50 0 0 62 0 62 63 -62 63 -62 107 0 108 0 -1
78 c-1 42 -1 97 -1 122 l1 45 66 -122 65 -123 37 0 c36 0 38 2 67 71 17 39 35
71 40 71 4 0 22 -32 39 -71 30 -70 31 -71 67 -71 l37 0 66 123 65 122 1 -122
0 -123 55 0 55 0 0 155 0 155 -100 0 -99 0 -22 -47 c-11 -27 -28 -64 -37 -83
l-15 -35 -38 83 c-38 80 -40 82 -74 82 -34 0 -36 -2 -74 -82 l-38 -83 -38 83
-38 82 -156 0 -157 0 -49 -50 c-27 -27 -53 -50 -57 -50 -4 0 -8 70 -8 155 l0
155 -50 0 -50 0 0 -260z m330 -102 l0 -123 -62 62 -63 63 60 60 c33 33 61 60
62 60 2 0 3 -55 3 -122z"/>
<path d="M1321 874 c-12 -15 -21 -33 -21 -41 0 -19 45 -63 65 -63 23 0 65 45
65 70 0 27 -35 60 -64 60 -15 0 -33 -11 -45 -26z"/>
<path d="M1780 880 c-27 -27 -23 -67 11 -92 31 -24 73 -11 91 27 10 22 8 30
-9 53 -26 35 -65 40 -93 12z"/>
<path d="M2441 874 c-12 -15 -21 -33 -21 -41 0 -19 45 -63 65 -63 23 0 65 45
65 70 0 27 -35 60 -64 60 -15 0 -33 -11 -45 -26z"/>
<path d="M2689 512 c-45 -37 -16 -122 41 -122 9 0 29 9 44 21 35 28 35 70 0
98 -33 26 -55 26 -85 3z"/>
<path d="M1321 195 c-1 -47 1 -51 24 -53 31 -2 53 32 34 54 -6 8 -20 14 -29
14 -10 0 -21 8 -23 18 -3 9 -5 -6 -6 -33z m49 -14 c0 -11 -5 -23 -11 -27 -15
-9 -33 12 -26 30 9 23 37 20 37 -3z"/>
<path d="M1610 189 c0 -31 4 -48 10 -44 6 3 10 26 10 51 0 24 -4 44 -10 44 -5
0 -10 -23 -10 -51z"/>
<path d="M931 172 c1 -36 2 -36 8 -7 3 17 13 30 21 30 8 0 18 -13 21 -30 l7
-30 1 33 c1 43 31 45 31 2 0 -16 5 -30 10 -30 12 0 13 40 2 56 -4 6 -28 12
-54 12 l-48 1 1 -37z"/>
<path d="M1145 190 c-8 -27 12 -52 39 -48 16 2 21 10 21 33 0 25 -4 31 -27 33
-19 2 -28 -2 -33 -18z m50 -15 c0 -11 -7 -21 -16 -23 -18 -3 -33 23 -23 39 10
17 39 5 39 -16z"/>
<path d="M1493 175 c0 -22 2 -30 4 -17 2 12 2 30 0 40 -3 9 -5 -1 -4 -23z"/>
<path d="M1740 195 c-10 -12 -11 -21 -3 -33 11 -19 53 -29 53 -13 0 6 -6 8
-14 5 -8 -3 -17 -1 -21 5 -4 7 4 11 20 11 20 0 26 4 23 18 -4 23 -41 27 -58 7z
m40 -5 c0 -5 -7 -10 -15 -10 -8 0 -15 5 -15 10 0 6 7 10 15 10 8 0 15 -4 15
-10z"/>
<path d="M1907 203 c-12 -12 -7 -22 13 -28 26 -8 26 -29 0 -22 -11 3 -18 1
-14 -4 11 -18 44 -10 44 11 0 11 -7 20 -15 20 -21 0 -19 18 3 23 14 4 13 5 -4
6 -11 0 -24 -2 -27 -6z"/>
</g>
</svg>
