<?xml version="1.0" standalone="no"?>
<!DOCTYPE svg PUBLIC "-//W3C//DTD SVG 20010904//EN"
 "http://www.w3.org/TR/2001/REC-SVG-20010904/DTD/svg10.dtd">
<svg version="1.0" xmlns="http://www.w3.org/2000/svg"
 width="287.000000pt" height="79.000000pt" viewBox="0 0 287.000000 79.000000"
 preserveAspectRatio="xMidYMid meet">

<g transform="translate(0.000000,79.000000) scale(0.100000,-0.100000)"
fill="#000000" stroke="none">
<path d="M960 493 c0 -154 -1 -157 -18 -131 -67 102 -216 117 -303 29 l-36
-36 -10 26 c-24 63 -120 84 -181 41 l-32 -23 -26 20 c-41 32 -87 37 -134 12
-33 -17 -40 -18 -40 -6 0 11 -12 15 -50 15 l-50 0 0 -155 0 -155 50 0 50 0 0
96 c0 111 9 134 50 134 47 0 60 -30 60 -137 l0 -93 49 0 49 0 4 105 c3 112 9
125 55 125 39 0 53 -35 53 -137 l0 -93 50 0 50 0 0 42 0 41 35 -36 c82 -84
247 -70 306 27 l19 31 0 -52 0 -53 50 0 c36 0 50 4 50 14 0 11 8 10 37 -5 69
-35 147 -15 190 50 l23 34 0 -47 0 -46 55 0 55 0 0 155 0 155 -55 0 -55 0 0
-46 0 -47 -23 34 c-43 65 -121 85 -190 50 l-37 -19 0 119 0 119 -50 0 -50 0 0
-157z m-127 -165 c24 -29 21 -65 -9 -95 -20 -20 -31 -24 -57 -19 -18 3 -38 14
-44 23 -14 18 -17 72 -5 89 25 38 84 39 115 2z m341 11 c18 -14 26 -30 26 -53
0 -42 -18 -64 -57 -72 -26 -5 -37 -1 -57 19 -39 39 -30 98 17 117 33 13 42 12
71 -11z"/>
<path d="M1440 390 l0 -260 50 0 50 0 0 62 0 62 63 -62 63 -62 106 0 107 0 3
117 3 118 63 -117 63 -118 37 0 c36 0 38 2 67 71 17 39 35 71 40 71 4 0 22
-32 39 -71 30 -70 31 -71 68 -71 l37 0 65 122 66 123 0 -122 0 -123 55 0 55 0
0 155 0 155 -100 0 -99 0 -22 -47 c-11 -27 -28 -64 -37 -83 l-15 -35 -38 83
c-38 80 -39 82 -74 82 -35 0 -37 -2 -74 -82 l-38 -83 -28 60 c-15 33 -31 70
-36 83 -8 22 -12 22 -167 22 l-158 0 -49 -50 c-27 -27 -53 -50 -57 -50 -4 0
-8 70 -8 155 l0 155 -50 0 -50 0 0 -260z m330 -102 l0 -123 -62 62 -63 63 60
60 c33 33 61 60 62 60 2 0 3 -55 3 -122z"/>
<path d="M1321 604 c-27 -34 -26 -50 4 -79 29 -30 45 -31 79 -4 31 25 34 61 6
89 -28 28 -64 25 -89 -6z"/>
<path d="M1780 610 c-28 -28 -23 -67 12 -93 23 -17 31 -19 53 -9 14 6 31 23
37 37 10 22 8 30 -9 53 -26 35 -65 40 -93 12z"/>
<path d="M2441 604 c-27 -34 -26 -50 4 -79 29 -30 45 -31 79 -4 31 25 34 61 6
89 -28 28 -64 25 -89 -6z"/>
<path d="M2689 242 c-47 -39 -16 -122 45 -122 29 0 66 40 66 71 0 30 -38 69
-67 69 -11 0 -31 -8 -44 -18z"/>
</g>
</svg>
